<svg width="28" height="28" viewBox="0 0 28 28" fill="none" xmlns="http://www.w3.org/2000/svg">
<g clip-path="url(#clip0_6441_112)" filter="url(#filter0_d_6441_112)">
<g clip-path="url(#clip1_6441_112)">
<path d="M18.5793 4.62001C17.3393 4.42001 16.1193 4.68001 15.0793 5.36001C15.3793 4.68001 15.8793 4.06001 16.5393 3.52001C17.3193 2.86001 18.0593 2.56001 18.0593 2.56001C18.3593 2.44001 18.5193 2.10001 18.3993 1.80001C18.2793 1.48001 17.9393 1.34001 17.6393 1.46001C17.5393 1.50001 16.0593 2.08001 14.8993 3.44001C14.8593 3.24001 14.7793 3.02001 14.6993 2.80001C14.0193 1.00001 12.0993 0.100007 12.0193 0.0600069C11.8793 -0.0199931 11.7193 -0.0199931 11.5593 0.0400069C11.3993 0.100007 11.2793 0.220007 11.2193 0.360007C11.1993 0.440007 10.3793 2.38001 11.0593 4.20001C11.1393 4.36001 11.1993 4.52001 11.2793 4.66001C10.6793 4.54001 10.0593 4.52001 9.41928 4.62001C6.65928 5.06001 4.77928 7.72001 5.19928 10.54C5.51928 12.56 5.95928 14.3 6.53928 15.68C7.19928 17.28 8.01928 18.44 8.99928 19.16C9.77928 19.72 10.6393 20 11.5793 20C11.8393 20 12.0993 19.98 12.3793 19.94C12.9993 19.84 13.5393 19.6 13.9993 19.26C14.4593 19.6 14.9993 19.84 15.6393 19.94C16.8793 20.14 18.0193 19.88 18.9993 19.16C19.9793 18.44 20.7993 17.28 21.4593 15.68C22.0393 14.3 22.4993 12.56 22.7993 10.54C23.2393 7.72001 21.3393 5.06001 18.5793 4.62001ZM12.1193 1.50001C12.6193 1.84001 13.2793 2.42001 13.5993 3.22001C13.8993 4.04001 13.7993 4.92001 13.6593 5.50001C13.1593 5.16001 12.4993 4.58001 12.1793 3.76001C11.8793 2.96001 11.9793 2.08001 12.1193 1.50001ZM21.6193 10.36C21.0193 14.34 19.8593 17.04 18.2993 18.18C17.5593 18.72 16.7593 18.9 15.8193 18.76C15.2393 18.66 14.7993 18.44 14.4393 18.04C14.3193 17.92 14.1593 17.86 13.9993 17.86C13.8393 17.86 13.6793 17.92 13.5593 18.04C13.1993 18.44 12.7593 18.66 12.1793 18.76C11.2393 18.9 10.4393 18.72 9.69928 18.18C8.13928 17.04 6.97928 14.34 6.37928 10.36C6.03928 8.18001 7.49928 6.14001 9.61928 5.78001C9.81928 5.76001 10.0193 5.74001 10.2193 5.74001C11.0393 5.74001 11.8393 6.02001 12.5193 6.52001C13.3993 7.20001 14.6193 7.20001 15.4793 6.52001C16.3193 5.88001 17.3593 5.62001 18.3793 5.78001C20.4993 6.14001 21.9593 8.18001 21.6193 10.36Z" fill="black"/>
</g>
</g>
<defs>
<filter id="filter0_d_6441_112" x="0" y="0" width="28" height="28" filterUnits="userSpaceOnUse" color-interpolation-filters="sRGB">
<feFlood flood-opacity="0" result="BackgroundImageFix"/>
<feColorMatrix in="SourceAlpha" type="matrix" values="0 0 0 0 0 0 0 0 0 0 0 0 0 0 0 0 0 0 127 0" result="hardAlpha"/>
<feOffset dy="4"/>
<feGaussianBlur stdDeviation="2"/>
<feComposite in2="hardAlpha" operator="out"/>
<feColorMatrix type="matrix" values="0 0 0 0 0 0 0 0 0 0 0 0 0 0 0 0 0 0 0.25 0"/>
<feBlend mode="normal" in2="BackgroundImageFix" result="effect1_dropShadow_6441_112"/>
<feBlend mode="normal" in="SourceGraphic" in2="effect1_dropShadow_6441_112" result="shape"/>
</filter>
<clipPath id="clip0_6441_112">
<rect width="20" height="20" fill="white" transform="translate(4)"/>
</clipPath>
<clipPath id="clip1_6441_112">
<rect width="20" height="20" fill="white" transform="translate(4)"/>
</clipPath>
</defs>
</svg>
