<svg width="28" height="28" viewBox="0 0 28 28" fill="none" xmlns="http://www.w3.org/2000/svg">
<g clip-path="url(#clip0_6441_215)" filter="url(#filter0_d_6441_215)">
<g clip-path="url(#clip1_6441_215)">
<g clip-path="url(#clip2_6441_215)">
<path d="M12.5686 11.0899C12.5686 10.0252 11.7025 9.15909 10.6378 9.15909C9.57321 9.15909 8.70703 10.0252 8.70703 11.0899H9.8789C9.8789 10.6714 10.2194 10.331 10.6378 10.331C11.0563 10.331 11.3967 10.6714 11.3967 11.0899H12.5686Z" fill="black"/>
<path d="M17.3605 9.15904C16.2958 9.15904 15.4297 10.0252 15.4297 11.0898H16.6016C16.6016 10.6714 16.942 10.3309 17.3605 10.3309C17.7789 10.3309 18.1194 10.6714 18.1194 11.0898H19.2913C19.2913 10.0252 18.4251 9.15904 17.3605 9.15904Z" fill="black"/>
<path d="M13.9981 14.5188C13.2572 14.5188 12.5625 14.1214 12.185 13.4818L11.1758 14.0773C11.763 15.0724 12.8444 15.6906 13.998 15.6906C15.1516 15.6906 16.2331 15.0724 16.8203 14.0773L15.811 13.4818C15.4336 14.1214 14.7389 14.5188 13.9981 14.5188Z" fill="black"/>
<path d="M23.2375 9.01438C22.8643 8.64161 22.3957 8.39512 21.887 8.2986C20.7884 4.90378 17.6015 2.5664 14 2.5664H13.6071C12.6637 2.5664 11.8962 1.79884 11.8962 0.855469H10.7243C10.7243 1.49563 10.9344 2.0875 11.2887 2.5664H10.9174C9.97402 2.5664 9.2065 1.79884 9.2065 0.855469H8.03463C8.03463 2.12872 8.86464 3.21107 10.0117 3.59171C8.19752 4.58911 6.77553 6.25142 6.11307 8.2986C5.60437 8.39512 5.13559 8.64169 4.76206 9.01481C4.27064 9.50676 4 10.1604 4 10.8555C4 11.542 4.26483 12.1896 4.74574 12.6792C5.12159 13.0619 5.59626 13.3144 6.11307 13.4124C7.21158 16.8072 10.3984 19.1445 14 19.1445C17.6016 19.1445 20.7884 16.8072 21.8869 13.4124C22.4037 13.3144 22.8784 13.0619 23.2543 12.6792C23.7352 12.1896 24 11.542 24 10.8555C24 10.1604 23.7294 9.50676 23.2375 9.01438ZM21.4253 12.286L20.9855 12.2943L20.8707 12.7189C20.0342 15.8122 17.2089 17.9726 14 17.9726C10.7911 17.9726 7.96578 15.8122 7.12929 12.7189L7.01446 12.2943L6.57473 12.286C5.80117 12.2714 5.17183 11.6297 5.17183 10.8555C5.17183 10.4732 5.32073 10.1136 5.59061 9.84344C5.85382 9.58051 6.20331 9.43185 6.57462 9.4249L7.01442 9.41664L7.12925 8.99201C7.96578 5.89873 10.7911 3.73831 14 3.73831C15.0591 3.73831 15.9207 4.59994 15.9207 5.65904C15.9207 6.71815 15.0591 7.57982 14 7.57982C12.9409 7.57982 12.0793 6.71819 12.0793 5.65908H10.9074C10.9074 7.36436 12.2947 8.75169 14 8.75169C15.7053 8.75169 17.0926 7.36436 17.0926 5.65908C17.0926 5.17378 16.98 4.71445 16.7799 4.30527C18.7453 5.14129 20.289 6.84095 20.8707 8.99205L20.9855 9.41668L21.4253 9.42494C21.7967 9.43189 22.1461 9.58055 22.4089 9.843C22.6793 10.1137 22.8282 10.4732 22.8282 10.8555C22.8281 11.6297 22.1988 12.2714 21.4253 12.286Z" fill="black"/>
</g>
</g>
</g>
<defs>
<filter id="filter0_d_6441_215" x="0" y="0" width="28" height="28" filterUnits="userSpaceOnUse" color-interpolation-filters="sRGB">
<feFlood flood-opacity="0" result="BackgroundImageFix"/>
<feColorMatrix in="SourceAlpha" type="matrix" values="0 0 0 0 0 0 0 0 0 0 0 0 0 0 0 0 0 0 127 0" result="hardAlpha"/>
<feOffset dy="4"/>
<feGaussianBlur stdDeviation="2"/>
<feComposite in2="hardAlpha" operator="out"/>
<feColorMatrix type="matrix" values="0 0 0 0 0 0 0 0 0 0 0 0 0 0 0 0 0 0 0.25 0"/>
<feBlend mode="normal" in2="BackgroundImageFix" result="effect1_dropShadow_6441_215"/>
<feBlend mode="normal" in="SourceGraphic" in2="effect1_dropShadow_6441_215" result="shape"/>
</filter>
<clipPath id="clip0_6441_215">
<rect width="20" height="20" fill="white" transform="translate(4)"/>
</clipPath>
<clipPath id="clip1_6441_215">
<rect width="20" height="20" fill="white" transform="translate(4)"/>
</clipPath>
<clipPath id="clip2_6441_215">
<rect width="20" height="20" fill="white" transform="translate(4)"/>
</clipPath>
</defs>
</svg>
