<svg width="28" height="28" viewBox="0 0 28 28" fill="none" xmlns="http://www.w3.org/2000/svg">
<g clip-path="url(#clip0_6441_131)" filter="url(#filter0_d_6441_131)">
<g clip-path="url(#clip1_6441_131)">
<g clip-path="url(#clip2_6441_131)">
<path d="M14.6149 3.03676C15.5477 3.3509 16.3201 4.28428 16.6975 4.81264C17.3094 5.66938 17.8049 6.71153 18.1304 7.82645C18.2045 8.0804 18.4366 8.2452 18.6884 8.2452C18.7423 8.2452 18.7972 8.23761 18.8516 8.22175C19.16 8.13172 19.3369 7.80882 19.2469 7.50049C18.8853 6.26162 18.331 5.0984 17.644 4.13655C17.0833 3.35146 16.167 2.33211 14.9861 1.9344C14.6818 1.83185 14.3518 1.99553 14.2493 2.29991C14.1468 2.60434 14.3105 2.93421 14.6149 3.03676Z" fill="black"/>
<path d="M22.4303 8.71758C22.3841 8.41707 22.114 8.20318 21.8111 8.22621C21.6783 8.23636 21.5586 8.2907 21.4661 8.37412L21.2956 8.52147C20.9538 6.55981 20.1723 4.63402 19.083 3.10897C17.6511 1.10413 15.8452 0 13.998 0C12.1509 0 10.3451 1.10413 8.91317 3.10906C7.82388 4.63421 7.04242 6.55995 6.70086 8.52152L6.53714 8.37998C6.4438 8.29312 6.32153 8.2364 6.18535 8.22598C5.88227 8.20318 5.61242 8.41707 5.56622 8.71758C5.45227 9.45922 5.39453 10.1966 5.39453 10.9092C5.39453 13.6866 6.26672 16.0175 7.91679 17.6501C9.44841 19.1655 11.6083 20 13.9984 20C16.3884 20 18.5482 19.1655 20.0797 17.6501C21.7298 16.0175 22.6019 13.6866 22.6019 10.9092C22.602 10.1966 22.5442 9.45922 22.4303 8.71758ZM9.85975 3.78509C11.0673 2.09431 12.537 1.16317 13.998 1.16317C15.4592 1.16317 16.9289 2.09431 18.1365 3.78505C19.257 5.35379 20.0195 7.39408 20.2509 9.42451L19.3183 10.2305L17.038 8.2599C16.8196 8.07119 16.4957 8.07119 16.2773 8.25999L13.998 10.2304L11.7182 8.25995C11.4999 8.07114 11.176 8.07114 10.9576 8.25995L8.67779 10.2304L7.74567 9.4247C7.97681 7.39431 8.73925 5.35393 9.85975 3.78509ZM19.2617 16.8232C17.9493 18.1217 16.0802 18.8368 13.9985 18.8368C11.9166 18.8368 10.0473 18.1217 8.73492 16.8232C7.3106 15.4141 6.5577 13.3691 6.5577 10.9092C6.5577 10.5996 6.56961 10.2846 6.59339 9.96608L8.29743 11.4391C8.51578 11.6279 8.83961 11.6279 9.05805 11.4391L11.3379 9.46857L13.6177 11.4391C13.8361 11.6279 14.1599 11.6279 14.3783 11.4391L16.6577 9.46857L18.938 11.4392C19.1564 11.6279 19.4801 11.6279 19.6985 11.4392L21.4031 9.96594C21.4268 10.2845 21.4388 10.5995 21.4388 10.9091C21.4388 13.369 20.686 15.414 19.2617 16.8232Z" fill="black"/>
</g>
</g>
</g>
<defs>
<filter id="filter0_d_6441_131" x="0" y="0" width="28" height="28" filterUnits="userSpaceOnUse" color-interpolation-filters="sRGB">
<feFlood flood-opacity="0" result="BackgroundImageFix"/>
<feColorMatrix in="SourceAlpha" type="matrix" values="0 0 0 0 0 0 0 0 0 0 0 0 0 0 0 0 0 0 127 0" result="hardAlpha"/>
<feOffset dy="4"/>
<feGaussianBlur stdDeviation="2"/>
<feComposite in2="hardAlpha" operator="out"/>
<feColorMatrix type="matrix" values="0 0 0 0 0 0 0 0 0 0 0 0 0 0 0 0 0 0 0.25 0"/>
<feBlend mode="normal" in2="BackgroundImageFix" result="effect1_dropShadow_6441_131"/>
<feBlend mode="normal" in="SourceGraphic" in2="effect1_dropShadow_6441_131" result="shape"/>
</filter>
<clipPath id="clip0_6441_131">
<rect width="20" height="20" fill="white" transform="translate(4)"/>
</clipPath>
<clipPath id="clip1_6441_131">
<rect width="20" height="20" fill="white" transform="translate(4)"/>
</clipPath>
<clipPath id="clip2_6441_131">
<rect width="20" height="20" fill="white" transform="translate(4)"/>
</clipPath>
</defs>
</svg>
