<svg width="28" height="28" viewBox="0 0 28 28" fill="none" xmlns="http://www.w3.org/2000/svg">
<g clip-path="url(#clip0_6441_153)" filter="url(#filter0_d_6441_153)">
<g clip-path="url(#clip1_6441_153)">
<g clip-path="url(#clip2_6441_153)">
<path d="M19.1073 7.09832H5.43816C5.04082 7.09832 4.71875 7.42039 4.71875 7.81773V12.446C4.71875 16.6115 8.1075 20 12.2727 20C16.438 20 19.8267 16.6115 19.8267 12.4461V7.81773C19.8267 7.42039 19.5046 7.09832 19.1073 7.09832ZM18.3878 12.4461C18.3878 15.818 15.6446 18.5612 12.2727 18.5612C8.90074 18.5612 6.15762 15.818 6.15762 12.4461V8.53719H18.3879L18.3878 12.4461Z" fill="black"/>
<path d="M21.0512 10.048H19.1085V11.4868H21.0512C21.7793 11.4868 22.3941 12.1017 22.3941 12.8298C22.3941 13.5578 21.779 14.1727 21.0512 14.1727H18.6289V15.6116H21.0512C22.585 15.6116 23.833 14.3638 23.833 12.8298C23.833 11.2957 22.585 10.048 21.0512 10.048Z" fill="black"/>
<path d="M12.2741 0C11.8768 0 11.5547 0.32207 11.5547 0.719414V4.14867C11.5547 4.54602 11.8768 4.86809 12.2741 4.86809C12.6714 4.86809 12.9935 4.54602 12.9935 4.14867V0.719414C12.9935 0.32207 12.6714 0 12.2741 0Z" fill="black"/>
<path d="M15.7038 1.15109C15.3064 1.15109 14.9844 1.47316 14.9844 1.87051V5.29976C14.9844 5.69711 15.3064 6.01918 15.7038 6.01918C16.1011 6.01918 16.4232 5.69711 16.4232 5.29976V1.87051C16.4232 1.47312 16.1012 1.15109 15.7038 1.15109Z" fill="black"/>
<path d="M8.84441 1.15109C8.44707 1.15109 8.125 1.47316 8.125 1.87051V5.29976C8.125 5.69711 8.44707 6.01918 8.84441 6.01918C9.24176 6.01918 9.56383 5.69711 9.56383 5.29976V1.87051C9.56383 1.47312 9.24176 1.15109 8.84441 1.15109Z" fill="black"/>
<path d="M19.4677 18.5611H4.88738C4.49004 18.5611 4.16797 18.8832 4.16797 19.2805C4.16797 19.6779 4.49004 20 4.88738 20H19.4677C19.8651 20 20.1871 19.6779 20.1871 19.2805C20.1871 18.8832 19.8651 18.5611 19.4677 18.5611Z" fill="black"/>
</g>
</g>
</g>
<defs>
<filter id="filter0_d_6441_153" x="0" y="0" width="28" height="28" filterUnits="userSpaceOnUse" color-interpolation-filters="sRGB">
<feFlood flood-opacity="0" result="BackgroundImageFix"/>
<feColorMatrix in="SourceAlpha" type="matrix" values="0 0 0 0 0 0 0 0 0 0 0 0 0 0 0 0 0 0 127 0" result="hardAlpha"/>
<feOffset dy="4"/>
<feGaussianBlur stdDeviation="2"/>
<feComposite in2="hardAlpha" operator="out"/>
<feColorMatrix type="matrix" values="0 0 0 0 0 0 0 0 0 0 0 0 0 0 0 0 0 0 0.25 0"/>
<feBlend mode="normal" in2="BackgroundImageFix" result="effect1_dropShadow_6441_153"/>
<feBlend mode="normal" in="SourceGraphic" in2="effect1_dropShadow_6441_153" result="shape"/>
</filter>
<clipPath id="clip0_6441_153">
<rect width="20" height="20" fill="white" transform="translate(4)"/>
</clipPath>
<clipPath id="clip1_6441_153">
<rect width="20" height="20" fill="white" transform="translate(4)"/>
</clipPath>
<clipPath id="clip2_6441_153">
<rect width="20" height="20" fill="white" transform="translate(4)"/>
</clipPath>
</defs>
</svg>
