<svg width="27" height="26" viewBox="0 0 27 26" fill="none" xmlns="http://www.w3.org/2000/svg">
<g filter="url(#filter0_d_6441_101)">
<g clip-path="url(#clip0_6441_101)">
<path d="M9.83228 1.72801H6.08828C5.70428 1.72801 5.38328 1.84801 5.12528 2.08801C4.86728 2.32801 4.73828 2.63401 4.73828 3.00601V6.75001C4.73828 7.12201 4.87028 7.44001 5.13428 7.70401C5.39828 7.96801 5.71628 8.10001 6.08828 8.10001H9.83228C10.2163 8.10001 10.5373 7.96801 10.7953 7.70401C11.0533 7.44001 11.1823 7.12201 11.1823 6.75001V3.00601C11.1823 2.63401 11.0533 2.32801 10.7953 2.08801C10.5373 1.84801 10.2163 1.72801 9.83228 1.72801ZM9.97628 6.75001C9.97628 6.78601 9.96128 6.81901 9.93128 6.84901C9.90128 6.87901 9.86828 6.89401 9.83228 6.89401H6.08828C6.05228 6.93001 6.01628 6.92701 5.98028 6.88501C5.94428 6.84301 5.92628 6.79801 5.92628 6.75001V3.00601C5.92628 2.95801 5.94428 2.91901 5.98028 2.88901C6.01628 2.85901 6.05228 2.84401 6.08828 2.84401H9.83228C9.86828 2.84401 9.90128 2.85901 9.93128 2.88901C9.96128 2.91901 9.97628 2.95801 9.97628 3.00601V6.75001ZM18.0763 1.72801H14.3323C13.9603 1.72801 13.6423 1.85701 13.3783 2.11501C13.1143 2.37301 12.9823 2.69401 12.9823 3.07801V6.82201C12.9823 7.19401 13.1143 7.51201 13.3783 7.77601C13.6423 8.04001 13.9603 8.17201 14.3323 8.17201H18.0763C18.4603 8.17201 18.7813 8.04001 19.0393 7.77601C19.2973 7.51201 19.4263 7.19401 19.4263 6.82201V3.00601C19.4263 2.63401 19.2973 2.32801 19.0393 2.08801C18.7813 1.84801 18.4603 1.72801 18.0763 1.72801ZM18.2383 6.75001C18.2383 6.78601 18.2233 6.81901 18.1933 6.84901C18.1633 6.87901 18.1243 6.89401 18.0763 6.89401H14.3323C14.2963 6.89401 14.2633 6.87901 14.2333 6.84901C14.2033 6.81901 14.1883 6.78601 14.1883 6.75001V3.00601C14.1883 2.95801 14.2033 2.91901 14.2333 2.88901C14.2633 2.85901 14.2963 2.84401 14.3323 2.84401H18.0763C18.1243 2.84401 18.1633 2.85901 18.1933 2.88901C18.2233 2.91901 18.2383 2.95801 18.2383 3.00601V6.75001ZM18.0763 9.97201H14.3323C13.9603 9.97201 13.6423 10.101 13.3783 10.359C13.1143 10.617 12.9823 10.938 12.9823 11.322V15.066C12.9823 15.45 13.1143 15.774 13.3783 16.038C13.6423 16.302 13.9603 16.434 14.3323 16.434H18.0763C18.4483 16.434 18.7663 16.302 19.0303 16.038C19.2943 15.774 19.4263 15.45 19.4263 15.066V11.322C19.4263 10.914 19.2973 10.587 19.0393 10.341C18.7813 10.095 18.4603 9.97201 18.0763 9.97201ZM18.2383 14.994C18.2383 15.03 18.2233 15.066 18.1933 15.102C18.1633 15.138 18.1243 15.156 18.0763 15.156H14.3323C14.2963 15.156 14.2633 15.138 14.2333 15.102C14.2033 15.066 14.1883 15.03 14.1883 14.994V11.25C14.1883 11.214 14.2033 11.181 14.2333 11.151C14.2633 11.121 14.2963 11.106 14.3323 11.106H18.0763C18.1243 11.106 18.1633 11.121 18.1933 11.151C18.2233 11.181 18.2383 11.214 18.2383 11.25V14.994ZM9.83228 9.97201H6.08828C5.71628 9.97201 5.39828 10.101 5.13428 10.359C4.87028 10.617 4.73828 10.938 4.73828 11.322V15.066C4.73828 15.45 4.87028 15.774 5.13428 16.038C5.39828 16.302 5.71628 16.434 6.08828 16.434H9.83228C10.2043 16.434 10.5223 16.302 10.7863 16.038C11.0503 15.774 11.1823 15.45 11.1823 15.066V11.322C11.1823 10.914 11.0533 10.587 10.7953 10.341C10.5373 10.095 10.2163 9.97201 9.83228 9.97201ZM9.97628 14.994C9.97628 15.03 9.96128 15.066 9.93128 15.102C9.90128 15.138 9.86828 15.156 9.83228 15.156H6.08828C6.05228 15.156 6.01628 15.138 5.98028 15.102C5.94428 15.066 5.92628 15.03 5.92628 14.994V11.25C5.92628 11.214 5.94428 11.181 5.98028 11.151C6.01628 11.121 6.05228 11.106 6.08828 11.106H9.83228C9.86828 11.106 9.90128 11.121 9.93128 11.151C9.96128 11.181 9.97628 11.214 9.97628 11.25V14.994Z" fill="#030712"/>
</g>
</g>
<defs>
<filter id="filter0_d_6441_101" x="-3" y="0" width="29.5898" height="26" filterUnits="userSpaceOnUse" color-interpolation-filters="sRGB">
<feFlood flood-opacity="0" result="BackgroundImageFix"/>
<feColorMatrix in="SourceAlpha" type="matrix" values="0 0 0 0 0 0 0 0 0 0 0 0 0 0 0 0 0 0 127 0" result="hardAlpha"/>
<feOffset dy="4"/>
<feGaussianBlur stdDeviation="2"/>
<feComposite in2="hardAlpha" operator="out"/>
<feColorMatrix type="matrix" values="0 0 0 0 0 0 0 0 0 0 0 0 0 0 0 0 0 0 0.25 0"/>
<feBlend mode="normal" in2="BackgroundImageFix" result="effect1_dropShadow_6441_101"/>
<feBlend mode="normal" in="SourceGraphic" in2="effect1_dropShadow_6441_101" result="shape"/>
</filter>
<clipPath id="clip0_6441_101">
<rect width="18" height="18" fill="white" transform="matrix(1 0 0 -1 4.58984 18)"/>
</clipPath>
</defs>
</svg>
