<svg width="28" height="28" viewBox="0 0 28 28" fill="none" xmlns="http://www.w3.org/2000/svg">
<g clip-path="url(#clip0_6441_121)" filter="url(#filter0_d_6441_121)">
<g clip-path="url(#clip1_6441_121)">
<path d="M12.9994 19.96C11.0594 19.96 9.23942 19.2 7.85942 17.82C7.13942 17.1 6.51942 16.24 6.11942 15.3C5.65942 14.28 5.39942 13.2 5.39942 12.08C5.35942 9.54 6.53942 6.98 8.81942 4.72C9.71942 3.8 11.9194 1.98 14.3994 0.88C17.4794 -0.46 19.9994 -0.26 21.7194 1.44C22.1394 1.86 22.4394 2.54 22.5394 3.26C22.6194 3.88 22.5994 4.82 21.9794 5.8C20.5394 8.12 19.9994 9.98 20.2194 11.8C20.4994 14.04 19.7394 16.24 18.1394 17.84C16.7594 19.2 14.9394 19.96 12.9994 19.96ZM18.0994 1.16C17.1594 1.16 16.0794 1.42 14.8794 1.96C12.5594 2.98 10.4994 4.7 9.63942 5.54C5.35942 9.84 6.07942 14.38 8.67942 17C11.0594 19.38 14.9194 19.38 17.3194 17C18.6394 15.68 19.2794 13.82 19.0594 11.94C18.7994 9.84 19.3994 7.76 20.9794 5.2C21.7794 3.88 21.2594 2.64 20.8794 2.28C20.1394 1.54 19.2194 1.16 18.0994 1.16ZM12.9994 17.62C11.6794 17.62 10.4394 17.1 9.51942 16.16C8.39942 15.06 7.75942 13.56 7.73942 12.06C7.71942 11.18 7.91942 10.28 8.29942 9.4C8.75942 8.38 9.47942 7.36 10.4594 6.38C12.1394 4.7 15.6194 2.34 18.0994 2.34C18.6394 2.34 19.0794 2.44 19.4794 2.66C19.7994 2.84 20.0394 3.14 20.1394 3.5C20.2394 3.86 20.1794 4.24 19.9994 4.56L19.9794 4.58C18.2794 7.34 17.6194 9.72 17.8994 12.08C18.0794 13.6 17.5594 15.1 16.4794 16.18C15.5394 17.1 14.3194 17.62 12.9994 17.62ZM18.0994 3.52C16.0794 3.52 12.8394 5.66 11.2994 7.2C10.4194 8.08 9.77942 8.98 9.37942 9.88C9.05942 10.6 8.89942 11.34 8.89942 12.04C8.91942 13.24 9.43942 14.44 10.3394 15.34C11.0594 16.06 11.9994 16.44 12.9994 16.44C13.9994 16.44 14.9394 16.06 15.6594 15.34C16.4794 14.52 16.8794 13.38 16.7394 12.22C16.4194 9.6 17.1394 6.96 18.9794 3.96C19.0194 3.9 19.0194 3.84 18.9994 3.8C18.9994 3.78 18.9794 3.72 18.9194 3.68C18.6994 3.56 18.4394 3.52 18.0994 3.52ZM13.0394 14.66C11.9994 14.66 11.1594 13.82 11.1594 12.78C11.1594 11.74 11.9994 10.9 13.0394 10.9C14.0794 10.9 14.9194 11.74 14.9194 12.78C14.9194 13.82 14.0794 14.66 13.0394 14.66ZM13.0394 12.08C12.6594 12.08 12.3394 12.38 12.3394 12.78C12.3394 13.18 12.6594 13.48 13.0394 13.48C13.4194 13.48 13.7594 13.16 13.7594 12.78C13.7594 12.4 13.4394 12.08 13.0394 12.08Z" fill="black"/>
</g>
</g>
<defs>
<filter id="filter0_d_6441_121" x="0" y="0" width="28" height="28" filterUnits="userSpaceOnUse" color-interpolation-filters="sRGB">
<feFlood flood-opacity="0" result="BackgroundImageFix"/>
<feColorMatrix in="SourceAlpha" type="matrix" values="0 0 0 0 0 0 0 0 0 0 0 0 0 0 0 0 0 0 127 0" result="hardAlpha"/>
<feOffset dy="4"/>
<feGaussianBlur stdDeviation="2"/>
<feComposite in2="hardAlpha" operator="out"/>
<feColorMatrix type="matrix" values="0 0 0 0 0 0 0 0 0 0 0 0 0 0 0 0 0 0 0.25 0"/>
<feBlend mode="normal" in2="BackgroundImageFix" result="effect1_dropShadow_6441_121"/>
<feBlend mode="normal" in="SourceGraphic" in2="effect1_dropShadow_6441_121" result="shape"/>
</filter>
<clipPath id="clip0_6441_121">
<rect width="20" height="20" fill="white" transform="translate(4)"/>
</clipPath>
<clipPath id="clip1_6441_121">
<rect width="20" height="20" fill="white" transform="translate(4)"/>
</clipPath>
</defs>
</svg>
