<svg width="28" height="28" viewBox="0 0 28 28" fill="none" xmlns="http://www.w3.org/2000/svg">
<g clip-path="url(#clip0_6441_201)" filter="url(#filter0_d_6441_201)">
<g clip-path="url(#clip1_6441_201)">
<path d="M22.7355 19.318L21.1633 9.87781C20.9364 8.51812 19.7709 7.53125 18.3919 7.53125C17.3307 7.53125 16.4674 6.66793 16.4674 5.60676V2.46875C16.4674 1.1075 15.36 0 13.9987 0C12.6374 0 11.5299 1.1075 11.5299 2.46875V5.60676C11.5299 6.66793 10.6666 7.53125 9.60544 7.53125C8.22649 7.53125 7.06094 8.51813 6.83391 9.87855L5.26184 19.318C5.2336 19.4879 5.28153 19.6615 5.39286 19.7929C5.50423 19.9243 5.66766 20 5.83985 20H22.1575C22.3297 20 22.4932 19.9243 22.6045 19.7929C22.7158 19.6615 22.7638 19.4879 22.7355 19.318ZM7.98993 10.0707C8.12219 9.27828 8.80161 8.70313 9.60544 8.70313C11.3128 8.70313 12.7018 7.3141 12.7018 5.60676V2.46875C12.7018 1.75363 13.2836 1.17188 13.9987 1.17188C14.7138 1.17188 15.2956 1.75367 15.2956 2.46875V5.60676C15.2956 7.3141 16.6846 8.70313 18.3919 8.70313C19.1957 8.70313 19.8752 9.27828 20.0073 10.07C20.0537 10.3503 20.1026 10.6451 20.1517 10.9414C19.394 10.36 18.4619 10.0417 17.5039 10.0417H10.4935C9.53548 10.0417 8.60337 10.36 7.84567 10.9414C7.89473 10.6454 7.94356 10.3508 7.98993 10.0707ZM7.35926 13.87C7.61466 12.3307 8.93278 11.2136 10.4935 11.2136H17.5038C19.0645 11.2136 20.3827 12.3307 20.6383 13.8714C20.7929 14.7898 20.9475 15.7145 21.0483 16.3177H6.94899C7.04977 15.7143 7.20454 14.7893 7.35926 13.87ZM6.53122 18.8281L6.75372 17.4896H21.2436L21.4661 18.8281H6.53122Z" fill="black"/>
</g>
</g>
<defs>
<filter id="filter0_d_6441_201" x="0" y="0" width="28" height="28" filterUnits="userSpaceOnUse" color-interpolation-filters="sRGB">
<feFlood flood-opacity="0" result="BackgroundImageFix"/>
<feColorMatrix in="SourceAlpha" type="matrix" values="0 0 0 0 0 0 0 0 0 0 0 0 0 0 0 0 0 0 127 0" result="hardAlpha"/>
<feOffset dy="4"/>
<feGaussianBlur stdDeviation="2"/>
<feComposite in2="hardAlpha" operator="out"/>
<feColorMatrix type="matrix" values="0 0 0 0 0 0 0 0 0 0 0 0 0 0 0 0 0 0 0.25 0"/>
<feBlend mode="normal" in2="BackgroundImageFix" result="effect1_dropShadow_6441_201"/>
<feBlend mode="normal" in="SourceGraphic" in2="effect1_dropShadow_6441_201" result="shape"/>
</filter>
<clipPath id="clip0_6441_201">
<rect width="20" height="20" fill="white" transform="translate(4)"/>
</clipPath>
<clipPath id="clip1_6441_201">
<rect width="20" height="20" fill="white" transform="translate(4)"/>
</clipPath>
</defs>
</svg>
