<svg width="28" height="28" viewBox="0 0 28 28" fill="none" xmlns="http://www.w3.org/2000/svg">
<g clip-path="url(#clip0_6441_180)" filter="url(#filter0_d_6441_180)">
<g clip-path="url(#clip1_6441_180)">
<path d="M22.4124 14.0677L20.3811 12.8949L22.1415 11.8569C22.4661 11.6654 22.5742 11.247 22.3827 10.9223C22.1912 10.5977 21.7729 10.4897 21.4481 10.6811L19.0232 12.111L15.3669 9.99995L19.0225 7.88931L21.4482 9.319C21.557 9.38316 21.6764 9.41355 21.7941 9.41355C22.0278 9.41355 22.2554 9.29343 22.3827 9.07749C22.5741 8.7528 22.466 8.33439 22.1413 8.14292L20.3806 7.10526L22.4124 5.93218C22.7389 5.74372 22.8507 5.3263 22.6622 4.99989C22.4738 4.67338 22.0564 4.56154 21.73 4.75009L19.6986 5.92299L19.6801 3.87904C19.6767 3.50212 19.3675 3.19755 18.9915 3.20273C18.6146 3.2061 18.3117 3.51441 18.3152 3.89133L18.3406 6.70695L14.6845 8.81787V4.59639L17.1357 3.21101C17.4639 3.02556 17.5795 2.60923 17.3941 2.281C17.2086 1.95285 16.7922 1.8371 16.4641 2.02265L14.6845 3.02847V0.682498C14.6845 0.305577 14.3789 0 14.002 0C13.6251 0 13.3195 0.305577 13.3195 0.682498V3.02847L11.5399 2.02274C11.2116 1.83719 10.7954 1.95285 10.6099 2.28109C10.4244 2.60923 10.5401 3.02565 10.8682 3.21111L13.3194 4.59648V8.81787L9.66331 6.70695L9.68869 3.89133C9.69215 3.51441 9.38931 3.2061 9.01238 3.20273C9.01029 3.20273 9.00829 3.20273 9.00611 3.20273C8.6321 3.20273 8.32716 3.50422 8.32379 3.87913L8.30532 5.92299L6.27393 4.75009C5.94752 4.56154 5.5301 4.67347 5.34164 4.99989C5.15318 5.3263 5.26502 5.74372 5.59143 5.93218L7.62318 7.10526L5.86225 8.14311C5.53756 8.33448 5.42945 8.75289 5.62083 9.07767C5.74814 9.29361 5.97573 9.41373 6.2095 9.41373C6.32726 9.41373 6.44656 9.38325 6.55539 9.31919L8.98135 7.88949L12.6371 10.0001L8.98072 12.1111L6.55539 10.681C6.23089 10.4896 5.81229 10.5975 5.62083 10.9222C5.42936 11.2469 5.53738 11.6653 5.86207 11.8567L7.62273 12.8948L5.59134 14.0676C5.26493 14.2561 5.15309 14.6735 5.34155 14.9999C5.46795 15.2189 5.69736 15.3413 5.93323 15.3413C6.04898 15.3413 6.16637 15.3118 6.27384 15.2497L8.30523 14.0768L8.3237 16.1209C8.32707 16.4957 8.63201 16.7973 9.00602 16.7973C9.00811 16.7973 9.0102 16.7973 9.01229 16.7972C9.38921 16.7938 9.69206 16.4855 9.6886 16.1086L9.66321 13.2929L13.3194 11.1819V15.4035L10.8682 16.7889C10.5401 16.9744 10.4244 17.3907 10.6099 17.7189C10.7354 17.941 10.9666 18.0657 11.2047 18.0657C11.3184 18.0657 11.4338 18.0372 11.5399 17.9773L13.3195 16.9715V19.3175C13.3195 19.6944 13.6251 20 14.002 20C14.3789 20 14.6845 19.6944 14.6845 19.3175V16.9715L16.4641 17.9773C16.5702 18.0372 16.6855 18.0657 16.7993 18.0657C17.0374 18.0657 17.2686 17.941 17.3941 17.7189C17.5795 17.3908 17.4639 16.9744 17.1357 16.7889L14.6845 15.4035V11.182L18.3406 13.2929L18.3146 16.1085C18.311 16.4854 18.6138 16.7938 18.9907 16.7973C18.9929 16.7974 18.995 16.7974 18.9971 16.7974C19.3711 16.7974 19.676 16.4959 19.6795 16.1211L19.6984 14.0768L21.73 15.2498C21.8375 15.3119 21.9549 15.3414 22.0707 15.3414C22.3065 15.3414 22.5359 15.2189 22.6623 15C22.8508 14.6736 22.739 14.2562 22.4124 14.0677Z" fill="black"/>
</g>
</g>
<defs>
<filter id="filter0_d_6441_180" x="0" y="0" width="28" height="28" filterUnits="userSpaceOnUse" color-interpolation-filters="sRGB">
<feFlood flood-opacity="0" result="BackgroundImageFix"/>
<feColorMatrix in="SourceAlpha" type="matrix" values="0 0 0 0 0 0 0 0 0 0 0 0 0 0 0 0 0 0 127 0" result="hardAlpha"/>
<feOffset dy="4"/>
<feGaussianBlur stdDeviation="2"/>
<feComposite in2="hardAlpha" operator="out"/>
<feColorMatrix type="matrix" values="0 0 0 0 0 0 0 0 0 0 0 0 0 0 0 0 0 0 0.25 0"/>
<feBlend mode="normal" in2="BackgroundImageFix" result="effect1_dropShadow_6441_180"/>
<feBlend mode="normal" in="SourceGraphic" in2="effect1_dropShadow_6441_180" result="shape"/>
</filter>
<clipPath id="clip0_6441_180">
<rect width="20" height="20" fill="white" transform="translate(4)"/>
</clipPath>
<clipPath id="clip1_6441_180">
<rect width="20" height="20" fill="white" transform="translate(4)"/>
</clipPath>
</defs>
</svg>
