<svg width="28" height="28" viewBox="0 0 28 28" fill="none" xmlns="http://www.w3.org/2000/svg">
<g clip-path="url(#clip0_6441_143)" filter="url(#filter0_d_6441_143)">
<g clip-path="url(#clip1_6441_143)">
<g clip-path="url(#clip2_6441_143)">
<path d="M20.4808 2.3C18.7408 0.82 16.4408 0 14.0008 0C11.5608 0 9.26078 0.82 7.52078 2.3C5.76078 3.82 4.80078 5.84 4.80078 7.98C4.80078 9.76 5.46078 10.92 6.56078 12.22C7.28078 13.08 7.64078 13.7 7.64078 14.8V17.92C7.64078 19.06 8.58078 20 9.72078 20H18.2808C19.4208 20 20.3608 19.06 20.3608 17.92V14.8C20.3608 13.7 20.7208 13.08 21.4408 12.22C22.5408 10.92 23.2008 9.76 23.2008 7.98C23.2008 5.84 22.2408 3.82 20.4808 2.3ZM20.5408 11.44C19.6608 12.48 19.1608 13.36 19.1608 14.8V17.92C19.1608 18.42 18.7608 18.82 18.2808 18.82H9.72078C9.24078 18.82 8.84078 18.42 8.84078 17.92V14.8C8.84078 13.36 8.34078 12.48 7.46078 11.44C6.50078 10.3 5.98078 9.42 5.98078 7.98C5.98078 4.24 9.58078 1.18 14.0008 1.18C18.4208 1.18 22.0208 4.24 22.0208 7.98C22.0208 9.42 21.5008 10.3 20.5408 11.44ZM10.9408 4.34C9.72078 4.34 8.72078 5.32 8.72078 6.54C8.72078 7.78 9.72078 8.76 10.9408 8.76C12.1608 8.76 13.1608 7.78 13.1608 6.54C13.1608 5.3 12.1608 4.34 10.9408 4.34ZM10.9408 7.58C10.3808 7.58 9.92078 7.12 9.92078 6.54C9.92078 5.98 10.3808 5.52 10.9408 5.52C11.5008 5.52 11.9608 5.98 11.9608 6.54C11.9608 7.12 11.5008 7.58 10.9408 7.58ZM17.4208 4.24C17.1008 4.24 16.8008 4.5 16.8208 4.84C16.8408 5.16 17.0808 5.42 17.4208 5.42C17.7208 5.42 18.0208 5.16 18.0008 4.84C18.0008 4.5 17.7408 4.24 17.4208 4.24ZM12.0408 10.46C11.7208 10.46 11.4208 10.74 11.4408 11.06C11.4608 11.38 11.7008 11.66 12.0408 11.66C12.3608 11.66 12.6408 11.38 12.6408 11.06C12.6208 10.74 12.3808 10.46 12.0408 10.46ZM14.0008 13.54C12.8808 13.54 11.9608 14.46 11.9608 15.58C11.9608 16.7 12.8808 17.62 14.0008 17.62C15.1208 17.62 16.0408 16.7 16.0408 15.58C16.0408 14.46 15.1208 13.54 14.0008 13.54ZM14.0008 16.44C13.5208 16.44 13.1408 16.06 13.1408 15.58C13.1408 15.1 13.5208 14.72 14.0008 14.72C14.4808 14.72 14.8608 15.1 14.8608 15.58C14.8608 16.06 14.4808 16.44 14.0008 16.44ZM17.1608 7.3C16.0608 7.3 15.1608 8.2 15.1608 9.3C15.1608 10.4 16.0608 11.3 17.1608 11.3C18.2608 11.3 19.1608 10.42 19.1608 9.3C19.1608 8.18 18.2608 7.3 17.1608 7.3ZM17.1608 10.12C16.7208 10.12 16.3408 9.76 16.3408 9.3C16.3408 8.86 16.7208 8.5 17.1608 8.5C17.6008 8.5 17.9608 8.86 17.9608 9.3C17.9608 9.76 17.6008 10.12 17.1608 10.12Z" fill="black"/>
</g>
</g>
</g>
<defs>
<filter id="filter0_d_6441_143" x="0" y="0" width="28" height="28" filterUnits="userSpaceOnUse" color-interpolation-filters="sRGB">
<feFlood flood-opacity="0" result="BackgroundImageFix"/>
<feColorMatrix in="SourceAlpha" type="matrix" values="0 0 0 0 0 0 0 0 0 0 0 0 0 0 0 0 0 0 127 0" result="hardAlpha"/>
<feOffset dy="4"/>
<feGaussianBlur stdDeviation="2"/>
<feComposite in2="hardAlpha" operator="out"/>
<feColorMatrix type="matrix" values="0 0 0 0 0 0 0 0 0 0 0 0 0 0 0 0 0 0 0.25 0"/>
<feBlend mode="normal" in2="BackgroundImageFix" result="effect1_dropShadow_6441_143"/>
<feBlend mode="normal" in="SourceGraphic" in2="effect1_dropShadow_6441_143" result="shape"/>
</filter>
<clipPath id="clip0_6441_143">
<rect width="20" height="20" fill="white" transform="translate(4)"/>
</clipPath>
<clipPath id="clip1_6441_143">
<rect width="20" height="20" fill="white" transform="translate(4)"/>
</clipPath>
<clipPath id="clip2_6441_143">
<rect width="20" height="20" fill="white" transform="translate(4)"/>
</clipPath>
</defs>
</svg>
