<svg width="28" height="28" viewBox="0 0 28 28" fill="none" xmlns="http://www.w3.org/2000/svg">
<g clip-path="url(#clip0_6441_208)" filter="url(#filter0_d_6441_208)">
<g clip-path="url(#clip1_6441_208)">
<path d="M22.9591 3.26C22.9591 2.54 22.4591 1.54 20.0991 0.8C18.4591 0.28 16.2991 0 13.9991 0C11.6991 0 9.53906 0.28 7.89906 0.8C5.53906 1.54 5.03906 2.54 5.03906 3.26V16.7C5.03906 18.86 9.53906 20 13.9991 20C18.4591 20 22.9591 18.86 22.9591 16.7V3.26ZM21.7791 16.7C21.7791 17.06 21.1591 17.6 19.7391 18.06C19.4791 18.14 19.1991 18.22 18.8991 18.3V17.46C18.8991 17.12 18.6391 16.86 18.2991 16.86C17.9591 16.86 17.7191 17.12 17.7191 17.46V18.54C16.5791 18.72 15.3191 18.82 13.9991 18.82C11.8191 18.82 9.77906 18.56 8.25906 18.06C6.85906 17.6 6.21906 17.06 6.21906 16.7V4.98C7.83906 6 10.9391 6.54 13.9991 6.54C15.2791 6.54 16.5391 6.46 17.7191 6.28V7.14C17.7191 7.48 17.9791 7.74 18.2991 7.74C18.6191 7.74 18.8991 7.48 18.8991 7.14V6.06C20.0591 5.8 21.0591 5.44 21.7791 4.98V16.7ZM19.7391 4.6C18.2191 5.1 16.1791 5.36 13.9991 5.36C11.8191 5.36 9.77906 5.1 8.25906 4.6C6.85906 4.14 6.21906 3.6 6.21906 3.26C6.21906 2.92 6.83906 2.36 8.25906 1.92C9.77906 1.44 11.8191 1.18 13.9991 1.18C16.1791 1.18 18.2191 1.44 19.7391 1.92C21.1591 2.36 21.7791 2.92 21.7791 3.26C21.7791 3.6 21.1591 4.14 19.7391 4.6ZM16.4591 2.08C15.7991 1.92 14.9191 1.82 13.9991 1.82C13.0791 1.82 12.1991 1.92 11.5391 2.08C10.6191 2.32 10.1591 2.72 10.1591 3.26C10.1591 3.8 10.6191 4.2 11.5391 4.46C12.1991 4.62 13.0791 4.72 13.9991 4.72C14.9191 4.72 15.7991 4.62 16.4591 4.46C17.3791 4.2 17.8391 3.8 17.8391 3.26C17.8391 2.72 17.3791 2.32 16.4591 2.08ZM13.9991 3.54C12.9391 3.54 12.1391 3.4 11.6791 3.26C12.1391 3.14 12.9391 3 13.9991 3C15.0791 3 15.8591 3.14 16.3191 3.26C15.8591 3.4 15.0791 3.54 13.9991 3.54ZM18.2991 8.94C17.9791 8.94 17.7191 9.2 17.7191 9.54V11.1C17.7191 11.44 17.9791 11.7 18.2991 11.7C18.6191 11.7 18.8991 11.44 18.8991 11.1V9.54C18.8991 9.2 18.6391 8.94 18.2991 8.94ZM18.2991 12.9C17.9791 12.9 17.7191 13.16 17.7191 13.5V15.06C17.7191 15.4 17.9791 15.66 18.2991 15.66C18.6191 15.66 18.8991 15.4 18.8991 15.06V13.5C18.8991 13.16 18.6391 12.9 18.2991 12.9Z" fill="black"/>
</g>
</g>
<defs>
<filter id="filter0_d_6441_208" x="0" y="0" width="28" height="28" filterUnits="userSpaceOnUse" color-interpolation-filters="sRGB">
<feFlood flood-opacity="0" result="BackgroundImageFix"/>
<feColorMatrix in="SourceAlpha" type="matrix" values="0 0 0 0 0 0 0 0 0 0 0 0 0 0 0 0 0 0 127 0" result="hardAlpha"/>
<feOffset dy="4"/>
<feGaussianBlur stdDeviation="2"/>
<feComposite in2="hardAlpha" operator="out"/>
<feColorMatrix type="matrix" values="0 0 0 0 0 0 0 0 0 0 0 0 0 0 0 0 0 0 0.25 0"/>
<feBlend mode="normal" in2="BackgroundImageFix" result="effect1_dropShadow_6441_208"/>
<feBlend mode="normal" in="SourceGraphic" in2="effect1_dropShadow_6441_208" result="shape"/>
</filter>
<clipPath id="clip0_6441_208">
<rect width="20" height="20" fill="white" transform="translate(4)"/>
</clipPath>
<clipPath id="clip1_6441_208">
<rect width="20" height="20" fill="white" transform="translate(4)"/>
</clipPath>
</defs>
</svg>
