<svg width="28" height="28" viewBox="0 0 28 28" fill="none" xmlns="http://www.w3.org/2000/svg">
<g clip-path="url(#clip0_6441_194)" filter="url(#filter0_d_6441_194)">
<g clip-path="url(#clip1_6441_194)">
<g clip-path="url(#clip2_6441_194)">
<path d="M19.3394 12.26H16.6994C15.6394 12.26 14.6794 12.7 13.9794 13.38V11.14H15.6794C17.5994 11.14 19.1594 9.58 19.1594 7.66C19.1594 7.34 18.8994 7.08 18.5594 7.08H16.2794C15.3794 7.08 14.5794 7.42 13.9794 7.96V6.54L14.5594 5.96C15.2194 5.28 15.5994 4.38 15.5994 3.44C15.5994 2.48 15.2194 1.6 14.5594 0.92L13.7994 0.18C13.5794 -0.06 13.1994 -0.06 12.9794 0.18L12.2194 0.92C11.5394 1.6 11.1794 2.48 11.1794 3.44C11.1794 4.38 11.5394 5.28 12.2194 5.96L12.7994 6.54V7.96C12.1794 7.42 11.3794 7.08 10.4994 7.08H8.19937C7.87937 7.08 7.61937 7.34 7.61937 7.66C7.61937 9.58 9.17937 11.14 11.0794 11.14H12.7994V13.38C12.0994 12.7 11.1394 12.26 10.0794 12.26H7.43937C7.11937 12.26 6.85938 12.52 6.85938 12.86C6.85938 15 8.59938 16.74 10.7394 16.74H12.7994V18.18C12.7994 18.5 13.0594 18.76 13.3794 18.76C13.6994 18.76 13.9794 18.5 13.9794 18.18V16.74H16.0194C18.1794 16.74 19.9194 15 19.9194 12.86C19.9194 12.52 19.6594 12.26 19.3394 12.26ZM16.2794 8.26H17.8994C17.6394 9.24 16.7394 9.96 15.6794 9.96H14.0394C14.2994 8.98 15.1994 8.26 16.2794 8.26ZM11.0794 9.96C10.0194 9.96 9.11937 9.24 8.85937 8.26H10.4994C11.5594 8.26 12.4594 8.98 12.7194 9.96H11.0794ZM10.7394 15.58C9.43938 15.58 8.35937 14.66 8.07937 13.44H10.0794C11.3794 13.44 12.4594 14.36 12.7394 15.58H10.7394ZM13.3794 5.38C13.1994 5.38 12.3394 4.58 12.3394 3.44C12.3394 2.34 12.9994 1.8 13.3794 1.42C13.7594 1.78 14.4194 2.34 14.4194 3.44C14.4194 4.56 13.5794 5.38 13.3794 5.38ZM16.0194 15.58H14.0394C14.2994 14.36 15.3994 13.44 16.6994 13.44H18.6794C18.4194 14.66 17.3194 15.58 16.0194 15.58Z" fill="black"/>
</g>
</g>
</g>
<defs>
<filter id="filter0_d_6441_194" x="0" y="0" width="28" height="28" filterUnits="userSpaceOnUse" color-interpolation-filters="sRGB">
<feFlood flood-opacity="0" result="BackgroundImageFix"/>
<feColorMatrix in="SourceAlpha" type="matrix" values="0 0 0 0 0 0 0 0 0 0 0 0 0 0 0 0 0 0 127 0" result="hardAlpha"/>
<feOffset dy="4"/>
<feGaussianBlur stdDeviation="2"/>
<feComposite in2="hardAlpha" operator="out"/>
<feColorMatrix type="matrix" values="0 0 0 0 0 0 0 0 0 0 0 0 0 0 0 0 0 0 0.25 0"/>
<feBlend mode="normal" in2="BackgroundImageFix" result="effect1_dropShadow_6441_194"/>
<feBlend mode="normal" in="SourceGraphic" in2="effect1_dropShadow_6441_194" result="shape"/>
</filter>
<clipPath id="clip0_6441_194">
<rect width="20" height="20" fill="white" transform="translate(4)"/>
</clipPath>
<clipPath id="clip1_6441_194">
<rect width="20" height="20" fill="white" transform="translate(4)"/>
</clipPath>
<clipPath id="clip2_6441_194">
<rect width="20" height="20" fill="white" transform="translate(4)"/>
</clipPath>
</defs>
</svg>
